<svg xmlns="http://www.w3.org/2000/svg" width="179.413" height="94.111" fill="#841e25" xmlns:v="https://vecta.io/nano"><ellipse cx="1.551" cy="1.339" rx="1.551" ry="1.339" transform="matrix(0 1 -1 0 179.413 0)"/><ellipse cx="1.551" cy="1.339" rx="1.551" ry="1.339" transform="matrix(0 1 -1 0 179.413 22.752)"/><ellipse cx="1.551" cy="1.339" rx="1.551" ry="1.339" transform="matrix(0 1 -1 0 179.413 45.504)"/><ellipse cx="1.551" cy="1.339" rx="1.551" ry="1.339" transform="matrix(0 1 -1 0 179.413 68.256)"/><ellipse cx="1.551" cy="1.339" rx="1.551" ry="1.339" transform="matrix(0 1 -1 0 179.413 91.009)"/><ellipse cx="1.551" cy="1.339" rx="1.551" ry="1.339" transform="matrix(0 1 -1 0 159.776 0)"/><ellipse cx="1.551" cy="1.339" rx="1.551" ry="1.339" transform="matrix(0 1 -1 0 159.776 22.752)"/><ellipse cx="1.551" cy="1.339" rx="1.551" ry="1.339" transform="matrix(0 1 -1 0 159.776 45.504)"/><ellipse cx="1.551" cy="1.339" rx="1.551" ry="1.339" transform="matrix(0 1 -1 0 159.776 68.256)"/><ellipse cx="1.551" cy="1.339" rx="1.551" ry="1.339" transform="matrix(0 1 -1 0 159.776 91.008)"/><ellipse cx="1.551" cy="1.339" rx="1.551" ry="1.339" transform="matrix(0 1 -1 0 140.138 0)"/><ellipse cx="1.551" cy="1.339" rx="1.551" ry="1.339" transform="matrix(0 1 -1 0 140.138 22.752)"/><ellipse cx="1.551" cy="1.339" rx="1.551" ry="1.339" transform="matrix(0 1 -1 0 140.138 45.504)"/><ellipse cx="1.551" cy="1.339" rx="1.551" ry="1.339" transform="matrix(0 1 -1 0 140.138 68.256)"/><ellipse cx="1.551" cy="1.339" rx="1.551" ry="1.339" transform="matrix(0 1 -1 0 140.138 91.008)"/><ellipse cx="1.551" cy="1.339" rx="1.551" ry="1.339" transform="matrix(0 1 -1 0 120.501 0)"/><ellipse cx="1.551" cy="1.339" rx="1.551" ry="1.339" transform="matrix(0 1 -1 0 120.501 22.752)"/><ellipse cx="1.551" cy="1.339" rx="1.551" ry="1.339" transform="matrix(0 1 -1 0 120.501 45.504)"/><ellipse cx="1.551" cy="1.339" rx="1.551" ry="1.339" transform="matrix(0 1 -1 0 120.501 68.256)"/><ellipse cx="1.551" cy="1.339" rx="1.551" ry="1.339" transform="matrix(0 1 -1 0 120.501 91.008)"/><ellipse cx="1.551" cy="1.339" rx="1.551" ry="1.339" transform="matrix(0 1 -1 0 100.864 0)"/><ellipse cx="1.551" cy="1.339" rx="1.551" ry="1.339" transform="matrix(0 1 -1 0 100.864 22.752)"/><ellipse cx="1.551" cy="1.339" rx="1.551" ry="1.339" transform="matrix(0 1 -1 0 100.864 45.504)"/><ellipse cx="1.551" cy="1.339" rx="1.551" ry="1.339" transform="matrix(0 1 -1 0 100.864 68.256)"/><ellipse cx="1.551" cy="1.339" rx="1.551" ry="1.339" transform="matrix(0 1 -1 0 100.864 91.008)"/><ellipse cx="1.551" cy="1.339" rx="1.551" ry="1.339" transform="matrix(0 1 -1 0 81.227 0)"/><ellipse cx="1.551" cy="1.339" rx="1.551" ry="1.339" transform="matrix(0 1 -1 0 81.227 22.752)"/><ellipse cx="1.551" cy="1.339" rx="1.551" ry="1.339" transform="matrix(0 1 -1 0 81.227 45.504)"/><ellipse cx="1.551" cy="1.339" rx="1.551" ry="1.339" transform="matrix(0 1 -1 0 81.227 68.256)"/><ellipse cx="1.551" cy="1.339" rx="1.551" ry="1.339" transform="matrix(0 1 -1 0 81.227 91.008)"/><ellipse cx="1.551" cy="1.339" rx="1.551" ry="1.339" transform="matrix(0 1 -1 0 61.589 0)"/><ellipse cx="1.551" cy="1.339" rx="1.551" ry="1.339" transform="matrix(0 1 -1 0 61.589 22.752)"/><ellipse cx="1.551" cy="1.339" rx="1.551" ry="1.339" transform="matrix(0 1 -1 0 61.589 45.504)"/><ellipse cx="1.551" cy="1.339" rx="1.551" ry="1.339" transform="matrix(0 1 -1 0 61.589 68.256)"/><ellipse cx="1.551" cy="1.339" rx="1.551" ry="1.339" transform="matrix(0 1 -1 0 61.589 91.008)"/><ellipse cx="1.551" cy="1.339" rx="1.551" ry="1.339" transform="matrix(0 1 -1 0 41.952 0)"/><ellipse cx="1.551" cy="1.339" rx="1.551" ry="1.339" transform="matrix(0 1 -1 0 41.952 22.752)"/><ellipse cx="1.551" cy="1.339" rx="1.551" ry="1.339" transform="matrix(0 1 -1 0 41.952 45.504)"/><ellipse cx="1.551" cy="1.339" rx="1.551" ry="1.339" transform="matrix(0 1 -1 0 41.952 68.256)"/><ellipse cx="1.551" cy="1.339" rx="1.551" ry="1.339" transform="matrix(0 1 -1 0 41.952 91.008)"/><ellipse cx="1.551" cy="1.339" rx="1.551" ry="1.339" transform="matrix(0 1 -1 0 22.315 0)"/><ellipse cx="1.551" cy="1.339" rx="1.551" ry="1.339" transform="matrix(0 1 -1 0 22.315 22.752)"/><ellipse cx="1.551" cy="1.339" rx="1.551" ry="1.339" transform="matrix(0 1 -1 0 22.315 45.504)"/><ellipse cx="1.551" cy="1.339" rx="1.551" ry="1.339" transform="matrix(0 1 -1 0 22.315 68.256)"/><ellipse cx="1.551" cy="1.339" rx="1.551" ry="1.339" transform="matrix(0 1 -1 0 22.315 91.008)"/><ellipse cx="1.551" cy="1.339" rx="1.551" ry="1.339" transform="matrix(0 1 -1 0 2.678 0)"/><ellipse cx="1.551" cy="1.339" rx="1.551" ry="1.339" transform="matrix(0 1 -1 0 2.678 22.752)"/><ellipse cx="1.551" cy="1.339" rx="1.551" ry="1.339" transform="matrix(0 1 -1 0 2.678 45.504)"/><ellipse cx="1.551" cy="1.339" rx="1.551" ry="1.339" transform="matrix(0 1 -1 0 2.678 68.256)"/><ellipse cx="1.551" cy="1.339" rx="1.551" ry="1.339" transform="matrix(0 1 -1 0 2.678 91.008)"/></svg>